<?xml version="1.0" encoding="UTF-8" standalone="no"?>
<!-- Created with Inkscape (http://www.inkscape.org/) -->
<svg
   xmlns:dc="http://purl.org/dc/elements/1.1/"
   xmlns:cc="http://creativecommons.org/ns#"
   xmlns:rdf="http://www.w3.org/1999/02/22-rdf-syntax-ns#"
   xmlns:svg="http://www.w3.org/2000/svg"
   xmlns="http://www.w3.org/2000/svg"
   xmlns:sodipodi="http://sodipodi.sourceforge.net/DTD/sodipodi-0.dtd"
   xmlns:inkscape="http://www.inkscape.org/namespaces/inkscape"
   id="svg2"
   sodipodi:version="0.32"
   inkscape:version="0.46"
   width="591"
   height="276"
   version="1.0"
   sodipodi:docname="Enel_Logo.svg"
   inkscape:output_extension="org.inkscape.output.svg.inkscape">
  <metadata
     id="metadata7">
    <rdf:RDF>
      <cc:Work
         rdf:about="">
        <dc:format>image/svg+xml</dc:format>
        <dc:type
           rdf:resource="http://purl.org/dc/dcmitype/StillImage" />
      </cc:Work>
    </rdf:RDF>
  </metadata>
  <defs
     id="defs5">
    <inkscape:perspective
       sodipodi:type="inkscape:persp3d"
       inkscape:vp_x="0 : 526.18109 : 1"
       inkscape:vp_y="0 : 1000 : 0"
       inkscape:vp_z="744.09448 : 526.18109 : 1"
       inkscape:persp3d-origin="372.04724 : 350.78739 : 1"
       id="perspective9" />
  </defs>
  <sodipodi:namedview
     inkscape:window-height="750"
     inkscape:window-width="1280"
     inkscape:pageshadow="2"
     inkscape:pageopacity="0.0"
     guidetolerance="10.0"
     gridtolerance="10.0"
     objecttolerance="10.0"
     borderopacity="1.0"
     bordercolor="#666666"
     pagecolor="#ffffff"
     id="base"
     showgrid="false"
     inkscape:zoom="2.4730601"
     inkscape:cx="258.34303"
     inkscape:cy="170.38539"
     inkscape:window-x="-8"
     inkscape:window-y="-8"
     inkscape:current-layer="svg2" />
  <path
     style="fill:#e97034;fill-opacity:1"
     d="M 133.76159,119.89606 C 133.19887,118.97843 132.30308,117.08398 131.77094,115.68619 C 125.96222,100.42824 123.17974,96.824953 108.66175,85.760016 C 99.805895,79.010505 96.125992,74.621175 91.660942,65.481813 C 88.722579,59.467377 86.724949,54.306212 85.517294,49.60884 C 83.110462,40.247052 82.698287,18.890111 84.882296,16.706102 C 85.481882,16.106506 85.455466,16.056409 88.028147,22.669613 C 91.22687,30.892065 94.919851,35.562102 110.13512,50.625414 C 125.09079,65.431727 129.01379,70.14972 132.53499,77.564641 C 136.51064,85.93657 137.9264,94.000466 137.97854,108.57017 C 138.01455,118.63112 137.78058,119.96116 135.78705,121.02806 C 134.93341,121.48493 134.63291,121.31699 133.76158,119.89607 L 133.76159,119.89606 z"
     id="path2450" />
  <path
     style="fill:#e97034;fill-opacity:1"
     d="M 149.5466,116.0674 C 149.24946,114.99739 149.01603,108.94123 149.01444,102.26038 C 150.71298,93.661027 148.43815,86.605191 143.70248,80.404025 C 138.15831,70.007832 135.77975,64.399202 134.73819,59.266298 C 133.79168,54.601863 133.95579,38.962884 135.01552,32.835359 C 136.74931,22.810353 142.63314,8.2042042 146.79223,3.6005954 C 147.79839,2.4868972 148.78586,1.5756906 148.98662,1.5756906 C 149.18737,1.5756906 149.14272,3.0052486 148.88738,4.7524862 C 147.99889,10.832055 149.19681,21.95242 151.63874,30.293923 C 152.2116,32.250829 154.51913,38.19779 156.76656,43.509392 C 164.09969,60.840657 165.78508,67.117101 165.78508,77.09448 C 165.78508,88.684447 161.7102,102.69668 155.36227,112.93528 C 153.62622,115.73535 151.56372,117.97348 150.7194,117.97348 C 150.36551,117.97348 149.83776,117.11575 149.54662,116.0674 L 149.5466,116.0674 z"
     id="path2452"
     sodipodi:nodetypes="cccsssssssssscc" />
  <path
     style="fill:#e97034;fill-opacity:1"
     d="M 164.48768,121.30237 C 163.5309,120.58503 163.63884,120.28807 167.71474,112.42465 C 174.9526,98.461033 175.96682,94.062665 174.63967,82.39337 C 174.09869,77.636508 173.91954,73.561416 174.13449,70.900598 C 175.74519,50.961316 190.01282,28.428234 208.33531,16.886707 C 212.77627,14.089292 213.0294,14.762966 209.83971,20.890608 C 204.73941,30.688679 203.48833,36.628799 202.13183,57.487293 C 200.71932,79.207161 199.96491,83.291859 195.86391,91.424949 C 189.81632,103.41853 180.70243,113.48794 170.10552,119.8839 C 166.72104,121.92667 165.67326,122.19123 164.4877,121.30238 L 164.48768,121.30237 z"
     id="path2454" />
  <path
     style="fill:#e97034;fill-opacity:1"
     d="M 177.6381,131.44882 C 175.23312,129.7643 175.71488,129.00611 182.31872,124.08243 C 189.73107,118.55596 194.40093,114.17783 196.96713,110.34917 C 197.99769,108.8116 200.2237,104.00829 201.91381,99.675138 C 206.76663,87.233317 209.59198,82.686657 217.07679,75.274283 C 228.34993,64.110246 247.31301,55.062249 261.34309,54.153187 L 265.66354,53.873253 L 263.89784,55.29906 C 259.41378,58.919962 252.32541,65.604697 249.54775,68.832006 C 245.5616,73.463423 244.16625,75.695674 238.23283,86.933245 C 230.09281,102.35001 226.70821,107.45867 220.62805,113.50564 C 213.05791,121.03443 202.58237,126.46641 188.65006,130.08745 C 180.80639,132.12603 178.93523,132.35736 177.6381,131.44881 L 177.6381,131.44882 z"
     id="path2456" />
  <path
     style="fill:#e97034;fill-opacity:1"
     d="M 200.03513,149.79798 C 191.24942,148.35782 185.03835,146.42162 183.58442,144.66975 C 182.92629,143.87674 182.96938,143.67945 183.97949,142.86151 C 184.60309,142.35656 187.34042,141.44971 190.06245,140.84631 C 206.46529,137.21025 209.75842,135.59921 219.72036,126.33736 C 232.84196,114.13788 239.74008,110.58714 255.75193,107.79038 C 265.15742,106.14755 272.20162,105.97328 279.38729,107.20566 C 287.96785,108.67727 296.4094,111.54069 295.33492,112.61518 C 295.20106,112.74902 292.81611,113.3034 290.03501,113.84712 C 277.91343,116.21695 271.06996,119.81031 255.87604,131.78323 C 241.69529,142.95779 234.71082,146.62756 223.11792,148.99496 C 216.46564,150.35342 205.70691,150.72771 200.03512,149.79798 L 200.03513,149.79798 z"
     id="path2458" />
  <path
     style="fill:#e97034;fill-opacity:1"
     d="M 225.76298,181.70735 C 213.64752,180.68177 197.95335,173.62612 188.85401,165.11413 C 185.42758,161.90889 184.08343,159.94763 184.08343,158.15342 C 184.08343,156.87089 184.40361,156.86645 188.60321,158.09075 C 196.07855,160.27005 203.03695,161.39763 208.9895,161.39431 C 214.79294,161.39108 214.90304,161.3684 224.36211,158.22967 C 236.99263,154.03857 242.00732,153.18637 249.29731,153.99216 C 254.46176,154.563 262.98813,156.23092 268.71326,157.79028 C 278.52325,160.46223 295.32573,171.21968 298.65384,176.95913 C 299.6059,178.60102 299.60591,178.62224 298.65384,178.23312 C 293.61878,176.17528 284.19089,175.19294 272.84351,175.54387 C 265.29701,175.77726 263.52995,175.9978 259.56409,177.20124 C 253.3008,179.10183 248.08032,180.31683 243.55304,180.9276 C 239.01712,181.53952 228.97842,181.97953 225.76298,181.70734 L 225.76298,181.70735 z"
     id="path2460" />
  <path
     style="fill:#e97034;fill-opacity:1"
     d="M 200.09448,274.7006 C 182.98265,271.06895 170.50907,261.22828 163.48758,245.82062 C 158.40202,234.66112 154.54393,215.21803 155.36584,204.89061 C 156.17564,194.7152 158.66355,187.25656 163.97039,179.09446 C 166.25308,175.58357 174.37293,165.52862 174.67718,165.83602 C 174.77007,165.92985 174.62779,167.03591 174.36104,168.29392 C 174.0943,169.55193 173.7406,176.31847 173.57505,183.33067 C 173.33216,193.61884 173.4433,197.54384 174.15071,203.66216 C 175.98177,219.49888 179.36955,231.4559 185.43831,243.50139 C 190.31905,253.18889 194.49988,258.93949 203.08447,267.77319 L 210.14078,275.03425 L 205.62592,274.97528 C 203.14274,274.94286 200.65359,274.81924 200.09448,274.70058 L 200.09448,274.7006 z"
     id="path2464" />
  <path
     style="fill:#e97034;fill-opacity:1"
     d="M 96.214068,268.55359 C 105.2673,259.25656 109.368,253.85405 114.10611,244.98153 C 118.42401,236.89591 121.84819,226.76918 124.35389,214.67465 C 126.33536,205.11052 126.70614,199.73166 126.54371,182.9069 C 126.46072,174.31034 126.55933,167.27692 126.76286,167.27707 C 127.3431,167.27751 132.64018,173.79118 135.0301,177.44309 C 142.89794,189.46556 145.37216,200.12977 144.0371,216.2645 C 143.12005,227.34734 141.47666,233.92548 137.11407,243.97593 C 131.52872,256.84334 124.32366,264.76066 113.02883,270.44213 C 107.33355,273.30694 100.35883,275.03425 94.486221,275.03425 L 89.903351,275.03425 L 96.214068,268.55359 z"
     id="path2466" />
  <path
     style="fill:#e97034;fill-opacity:1"
     d="M 26.260221,187.58483 C 19.678973,187.13426 12.51596,185.56519 7.1994475,183.40953 C 2.9141333,181.67198 1.8889432,181.02542 2.4807929,180.43357 C 2.7048155,180.20956 6.2588517,179.32529 10.378668,178.46853 C 22.802261,175.88492 27.229881,173.94914 41.762983,164.74702 C 57.5739,154.73581 61.303001,152.84568 69.10025,150.89088 C 72.970552,149.92058 74.848857,149.7847 83.950829,149.81653 C 95.249374,149.85605 98.323994,150.25337 105.80718,152.64096 C 115.54484,155.74786 118.58308,158.24508 114.27605,159.60177 C 113.39221,159.88018 110.03867,160.48505 106.82376,160.94593 C 99.056873,162.05937 92.008758,163.88168 88.271271,165.74273 C 86.593923,166.57796 82.59116,169.3551 79.376243,171.91416 C 68.667733,180.4381 63.091648,183.47799 53.919152,185.79248 C 49.209712,186.98081 37.356575,188.25882 33.122099,188.03484 C 32.423204,187.99788 29.335359,187.79537 26.260221,187.58483 L 26.260221,187.58483 z"
     id="path2468" />
  <path
     style="fill:#e97034;fill-opacity:1"
     d="M 111.65249,143.36959 C 109.97514,142.8201 105.62928,141.52809 101.99503,140.49846 C 96.148539,138.84206 94.713883,138.62451 89.541989,138.61002 C 84.412547,138.59565 82.949701,138.80412 77.597238,140.31224 C 71.694299,141.97547 71.141913,142.03771 60.451818,142.24391 C 48.093732,142.48229 45.565699,142.13352 37.737587,139.1103 C 27.24577,135.05836 18.698009,129.86358 10.249171,122.40461 C 5.6952221,118.38421 3.5926409,115.81969 4.2837439,115.1286 C 4.4514838,114.96085 7.0631554,115.51288 10.087455,116.35531 C 13.111754,117.19775 17.49259,118.16434 19.822635,118.5033 C 25.825407,119.37656 41.850282,118.85043 49.480691,117.52957 C 63.063266,115.17836 74.874307,115.61112 84.095843,118.79789 C 89.708367,120.73746 97.157622,124.31217 102.00634,127.39271 C 103.67746,128.45442 107.74864,132.01852 111.05339,135.31292 C 116.23313,140.47645 117.0395,141.49917 116.8987,142.72651 C 116.69013,144.54449 115.6341,144.67394 111.65249,143.36959 L 111.65249,143.36959 z"
     id="path2470" />
  <path
     style="fill:#e97034;fill-opacity:1"
     d="M 120.94238,128.96432 C 119.96328,128.2999 116.60685,125.54724 113.48364,122.84728 C 103.75322,114.43557 100.8619,113.01917 88.025636,110.37585 C 79.18871,108.5561 75.77242,107.50675 70.427642,104.97044 C 58.677366,99.394442 43.625816,83.227322 36.868299,68.923757 C 35.150145,65.286966 33.630387,60.226834 33.630387,58.142933 C 33.630387,56.969653 34.338589,56.577123 34.878705,57.451047 C 35.402297,58.29824 44.48537,65.401626 47.480651,67.306361 C 54.352014,71.675945 57.651917,73.029895 74.483902,78.385815 C 91.494732,83.798647 96.984103,86.772402 105.16511,95.006784 C 113.05071,102.94383 117.70653,109.67256 121.53223,118.66107 C 124.17494,124.87012 124.88163,127.70563 124.1344,129.10185 C 123.41009,130.45521 123.12094,130.44275 120.94237,128.96433 L 120.94238,128.96432 z"
     id="path2472" />
  <path
     style="fill:#0c63a5;fill-opacity:1"
     d="M 321.32099,177.51802 C 321.32099,176.94787 341.73208,80.010838 342.92905,74.896133 L 343.19671,73.752486 C 364.29369,73.913012 383.5265,73.782901 405.08545,73.79474 L 401.94696,90.387806 L 360.64174,90.525967 C 358.89009,98.861527 356.99411,107.16842 355.36516,115.5291 C 368.09013,115.73665 380.31036,115.87261 391.88868,115.82878 L 388.68441,133.2221 L 351.86398,133.25707 C 349.92878,142.82768 347.39772,152.2978 345.72211,161.92038 C 360.33594,162.25807 373.05108,162.14345 387.00691,161.97247 L 383.75687,177.95138 C 362.37192,177.85256 342.83223,178.00961 321.32099,177.51802 L 321.32099,177.51802 z"
     id="path2474"
     sodipodi:nodetypes="ccccccccccccccc" />
  <path
     style="fill:#0c63a5;fill-opacity:1"
     d="M 408.49252,101.45414 C 416.39658,101.4455 421.11038,101.50166 427.80574,101.39927 C 427.4974,103.56902 427.25235,105.71517 426.88097,107.75883 C 433.31723,102.70387 440.62182,99.957653 449.15525,99.613564 C 461.56965,99.434543 471.49598,106.79095 473.32111,119.15634 C 473.75046,123.93989 473.17884,133.16242 472.08709,139.0674 L 463.60667,178.01265 C 456.98695,177.73031 451.47398,177.99032 443.73919,177.90038 C 446.53095,162.97121 449.69119,148.08231 452.19242,133.08877 C 452.37438,131.75742 452.52865,128.73599 452.53526,126.37447 C 452.55101,120.72505 451.42074,118.53495 447.4994,116.61641 C 439.81806,112.85828 430.35187,116.83771 425.43226,125.89309 C 420.57882,138.54001 413.87374,169.43119 411.87821,177.87915 L 392.50663,177.95138 L 408.49252,101.45414 z"
     id="path2476"
     sodipodi:nodetypes="cccccccccsscccc" />
  <path
     style="fill:#0c63a5;fill-opacity:1"
     d="M 504.81271,179.65497 C 497.78548,178.70962 491.6719,176.10358 486.62156,171.90064 C 483.28217,169.12156 479.43189,163.73031 478.2274,160.14693 C 476.11389,153.85903 475.85319,142.69189 477.63438,134.74696 C 480.40104,122.40686 490.01219,110.11754 501.85244,103.78069 C 508.12821,100.42191 512.1969,99.420501 519.55304,99.42411 C 534.24956,99.431323 543.40635,104.22092 548.54346,114.58798 C 551.40532,120.36352 551.9346,124.58345 551.13084,135.21687 C 550.80173,139.57113 550.39728,143.76271 550.23209,144.53149 L 549.93174,145.92928 L 522.47112,145.92928 L 495.01044,145.92928 L 495.3335,149.10608 C 495.73236,153.02762 498.50059,158.91472 500.96197,161.07584 C 504.09831,163.82956 507.79712,164.86894 515.39179,165.13064 C 522.77619,165.38511 525.3633,164.80826 533.60678,162.66611 C 536.55096,161.90104 540.11784,160.62653 540.07823,160.96416 C 539.87131,162.72754 539.57735,163.88628 538.5367,171.46458 L 537.7481,175.90596 L 534.36875,176.90857 C 526.79344,179.15616 524.37343,179.51447 515.48674,179.70429 C 510.59448,179.80879 505.79116,179.7866 504.81271,179.65497 L 504.81271,179.65497 z M 532.00786,131.18608 C 532.61922,130.19683 532.30576,124.30091 531.52153,122.03978 C 529.78418,115.80809 525.26688,114.28342 519.4717,114.26095 C 514.33805,113.7851 510.18477,115.78175 505.58008,119.5634 C 503.57941,121.32007 500.14475,126.59024 498.8969,129.5013 C 498.49521,130.4384 498.19302,131.01158 498.29266,131.2408 C 510.24703,131.33191 521.64927,131.27532 532.00786,131.18608 L 532.00786,131.18608 z"
     id="path2478"
     sodipodi:nodetypes="cssssssscccccsssscccsccccccsccc" />
  <path
     style="fill:#0c63a5;fill-opacity:1"
     d="M 548.87902,177.51509 L 570.48383,73.752486 C 577.44237,73.781151 583.92592,73.813418 590.76482,73.789352 C 583.43723,108.23502 575.92497,143.04463 568.85691,177.54632 C 562.02353,177.55852 555.22903,177.5043 548.87902,177.51509 z"
     id="path2480"
     sodipodi:nodetypes="ccccc" />
</svg>
