<?xml version="1.0" encoding="utf-8"?>
<!-- Generator: Adobe Illustrator 18.1.0, SVG Export Plug-In . SVG Version: 6.00 Build 0)  -->
<!DOCTYPE svg PUBLIC "-//W3C//DTD SVG 1.1//EN" "http://www.w3.org/Graphics/SVG/1.1/DTD/svg11.dtd">
<svg version="1.1" id="Livello_1" xmlns="http://www.w3.org/2000/svg" xmlns:xlink="http://www.w3.org/1999/xlink" x="0px" y="0px"
	 width="167.2px" height="167.2px" viewBox="-315 317.8 167.2 167.2" enable-background="new -315 317.8 167.2 167.2"
	 xml:space="preserve">
<rect x="-315" y="317.8" fill="#FFFFFF" width="167.2" height="167.2"/>
<g>
	<g>
		<g>
			<path fill="#0084AD" d="M-252.6,372.7c-2.7-2.8-4.1-6.1-4.1-9.9s1.4-7.1,4.2-9.8c2.8-2.8,6.1-4.2,10-4.2s7.2,1.4,10,4.1
				c2.8,2.8,4.1,6,4.1,9.8c0,3.8-1.4,7.1-4.1,9.9c-2.7,2.8-6,4.2-9.8,4.2h-0.5C-246.6,376.9-249.9,375.5-252.6,372.7z M-229.6,362.8
				c0-3.6-1.3-6.6-3.8-9.2c-2.6-2.5-5.6-3.8-9.2-3.8c-3.6,0-6.6,1.3-9.2,3.8c-2.5,2.5-3.8,5.6-3.8,9.2s1.3,6.6,3.8,9.2
				c2.5,2.6,5.6,3.8,9.1,3.8c3.6,0,6.6-1.3,9.1-3.8C-230.9,369.5-229.6,366.4-229.6,362.8z"/>
			<path fill="#0084AD" d="M-242.3,377.2h-0.5c-3.8,0-7.2-1.5-9.9-4.3c-2.9-2.9-4.3-6.3-4.3-10.1s1.4-7.2,4.3-10
				c2.8-2.8,6.3-4.2,10.2-4.2c4,0,7.4,1.4,10.2,4.2s4.2,6.2,4.2,10.1s-1.4,7.3-4.2,10.1C-235.1,375.8-238.5,377.2-242.3,377.2z
				 M-242.5,349.1c-3.8,0-7.1,1.4-9.8,4.1c-2.7,2.6-4.1,5.9-4.1,9.6s1.4,6.9,4,9.7c2.7,2.8,5.9,4.2,9.5,4.2h0.5
				c3.7,0,6.9-1.4,9.6-4.1c2.7-2.7,4-6,4-9.7c0-3.7-1.4-6.9-4-9.6S-238.8,349.1-242.5,349.1z M-242.6,376.2c-3.6,0-6.8-1.3-9.3-3.9
				c-2.6-2.6-3.9-5.8-3.9-9.4s1.3-6.8,3.9-9.4c2.6-2.6,5.7-3.9,9.4-3.9c3.6,0,6.8,1.3,9.3,3.9c2.6,2.6,3.9,5.8,3.9,9.4
				s-1.3,6.8-3.9,9.4C-235.8,374.8-239,376.2-242.6,376.2z M-242.6,350.1c-3.5,0-6.5,1.3-8.9,3.7c-2.5,2.5-3.7,5.5-3.7,9
				s1.3,6.5,3.7,9c2.5,2.5,5.5,3.8,8.9,3.8c3.4,0,6.5-1.3,8.9-3.8c2.5-2.5,3.7-5.5,3.7-9s-1.2-6.5-3.7-9
				C-236.1,351.4-239.1,350.1-242.6,350.1z"/>
		</g>
		<g>
			<path fill="#0084AD" d="M-221.1,372.7c-2.7-2.8-4.1-6.1-4.1-9.9s1.4-7.1,4.2-9.8c2.8-2.8,6.1-4.2,10-4.2s7.2,1.4,10,4.1
				c2.8,2.8,4.1,6,4.1,9.8c0,3.8-1.4,7.1-4.1,9.9c-2.7,2.8-6,4.2-9.8,4.2h-0.5C-215.1,376.9-218.3,375.5-221.1,372.7z M-198.1,362.8
				c0-3.6-1.3-6.6-3.8-9.2c-2.5-2.5-5.6-3.8-9.1-3.8c-3.6,0-6.6,1.3-9.2,3.8c-2.5,2.6-3.8,5.7-3.8,9.2c0,3.6,1.3,6.6,3.8,9.2
				c2.5,2.6,5.6,3.8,9.1,3.8c3.6,0,6.6-1.3,9.1-3.8C-199.4,369.5-198.1,366.4-198.1,362.8z"/>
			<path fill="#0084AD" d="M-210.8,377.2h-0.5c-3.8,0-7.2-1.5-9.9-4.3c-2.8-2.9-4.2-6.3-4.2-10.1s1.4-7.2,4.3-10
				c2.8-2.8,6.3-4.2,10.2-4.2c4,0,7.4,1.4,10.2,4.2c2.8,2.8,4.2,6.2,4.2,10.1s-1.4,7.3-4.2,10.1
				C-203.6,375.8-206.9,377.2-210.8,377.2z M-211,349.1c-3.8,0-7.1,1.4-9.8,4.1c-2.7,2.7-4.1,5.9-4.1,9.6s1.4,6.9,4,9.7
				c2.7,2.8,5.9,4.2,9.5,4.2h0.5c3.7,0,6.9-1.4,9.6-4.1c2.7-2.7,4-6,4-9.7c0-3.7-1.4-6.9-4-9.6C-203.9,350.4-207.2,349.1-211,349.1z
				 M-211,376.2c-3.6,0-6.8-1.3-9.3-3.9c-2.6-2.6-3.9-5.8-3.9-9.4s1.3-6.8,3.9-9.4c2.6-2.6,5.7-3.9,9.4-3.9c3.6,0,6.8,1.3,9.3,3.9
				c2.6,2.6,3.9,5.8,3.9,9.4s-1.3,6.8-3.9,9.4C-204.3,374.8-207.4,376.2-211,376.2z M-211,350.1c-3.5,0-6.5,1.3-8.9,3.7
				c-2.5,2.5-3.7,5.5-3.7,9s1.3,6.5,3.7,9s5.5,3.8,8.9,3.8s6.5-1.3,8.9-3.8c2.5-2.5,3.7-5.5,3.7-9s-1.2-6.5-3.7-9
				C-204.6,351.4-207.6,350.1-211,350.1z"/>
		</g>
		<g>
			<path fill="#0084AD" d="M-164.7,349.3v27.2h-1.2v-25.8l-12.8,26.3l-12.8-26.3v25.8h-1.1v-27.2h1.7l12.2,25.1l12.3-25.1
				C-166.4,349.3-164.7,349.3-164.7,349.3z"/>
			<path fill="#0084AD" d="M-178.7,377.6l-12.5-25.7v24.8h-1.7V349h2.2l12,24.7l12.1-24.7h2.2v27.8h-1.8V352L-178.7,377.6z
				 M-191.7,349.6l13,26.7l13-26.7h-0.5l-12.4,25.5l-12.4-25.5H-191.7z M-165.6,376.1h0.6v-26.5h-0.6V376.1z M-192.3,376.1h0.5
				v-26.5h-0.5V376.1z"/>
		</g>
	</g>
	<g>
		<g>
			<path fill="#0084AD" d="M-206.1,391.5c0-2.5-0.8-4.6-2.4-6.4c-1.6-1.8-3.7-2.7-6.4-2.7c-2.7,0-4.9,1-6.6,2.9
				c-1.8,1.9-2.6,4.2-2.6,7h-1.1c0-3.1,1-5.7,3-7.7c2-2.1,4.5-3.1,7.5-3.1s5.4,1,7.2,3c1.8,2,2.7,4.4,2.7,7.2c0,4-2.2,7.4-6.5,10.1
				l-9.9,6.2h16.2v1.2h-20.1l12.7-8.1C-208.2,398.4-206.1,395.2-206.1,391.5z"/>
			<path fill="#0084AD" d="M-204.9,409.2h-20.7l13.2-8.4c4.1-2.6,6.2-5.7,6.2-9.3c0-2.4-0.8-4.5-2.4-6.3s-3.7-2.7-6.3-2.7
				c-2.6,0-4.8,0.9-6.5,2.8s-2.6,4.2-2.6,6.9v0.2h-1.4v-0.2c0-3.1,1-5.8,3-7.9s4.6-3.2,7.6-3.2s5.5,1,7.3,3.1c1.8,2,2.8,4.5,2.8,7.3
				c0,4.1-2.2,7.5-6.5,10.2l-9.5,5.9h15.9L-204.9,409.2L-204.9,409.2z M-224.6,408.9h19.4V408h-16.7l10.4-6.5c4.2-2.7,6.4-6,6.4-10
				c0-2.7-0.9-5.1-2.7-7.1c-1.8-2-4.2-3-7.1-3s-5.4,1-7.4,3.1c-1.9,2-2.9,4.5-3,7.5h0.8c0-2.7,0.9-5,2.7-6.9
				c1.8-1.9,4.1-2.9,6.7-2.9c2.7,0,4.9,0.9,6.5,2.8c1.6,1.8,2.5,4,2.5,6.5c0,3.7-2.1,6.9-6.3,9.6L-224.6,408.9z"/>
		</g>
		<g>
			<path fill="#0084AD" d="M-183.2,400.2c0,2.6-0.9,4.7-2.8,6.5c-1.8,1.8-4,2.7-6.6,2.7c-2.6,0-4.8-0.9-6.6-2.6s-2.8-3.8-2.8-6.2
				v-0.8h1.1v0.6c0,2.2,0.8,4.1,2.4,5.6s3.5,2.3,5.8,2.3s4.2-0.8,5.8-2.3s2.4-3.4,2.4-5.7c0-1.5-0.4-3-1.2-4.5
				c-0.8-1.4-1.9-2.4-3.2-3l-0.7-0.3l0.7-0.5c0.6-0.5,1.1-1.1,1.5-1.9c0.4-0.8,0.5-1.6,0.5-2.4c0-1.5-0.6-2.8-1.7-3.9
				c-1.1-1.1-2.4-1.6-4-1.6c-1.5,0-2.9,0.6-4.1,1.7c-1.2,1.1-1.8,2.5-1.8,4.1h-1.2c0-1.9,0.7-3.5,2.1-4.8c1.4-1.3,3-2,4.9-2
				c1.9,0,3.5,0.6,4.9,1.9c1.3,1.2,2,2.8,2,4.5c0,1.8-0.6,3.4-1.9,4.8c1.3,0.8,2.4,1.9,3.2,3.3
				C-183.6,397.1-183.2,398.6-183.2,400.2z"/>
			<path fill="#0084AD" d="M-192.6,409.6c-2.6,0-4.9-0.9-6.7-2.6c-1.9-1.8-2.8-3.9-2.8-6.3v-0.9h1.4v0.7c0,2.2,0.8,4,2.3,5.5
				c1.6,1.5,3.5,2.3,5.7,2.3s4.1-0.8,5.7-2.3s2.4-3.4,2.4-5.6c0-1.5-0.4-3-1.2-4.4c-0.8-1.4-1.8-2.4-3.1-2.9l-0.9-0.4l0.9-0.7
				c0.6-0.5,1.1-1.1,1.4-1.9c0.3-0.8,0.5-1.6,0.5-2.4c0-1.4-0.5-2.7-1.6-3.8c-1.1-1.1-2.4-1.6-3.9-1.6s-2.8,0.6-3.9,1.7
				c-1.1,1.1-1.7,2.4-1.8,4v0.2h-1.5V388c0-1.9,0.8-3.6,2.1-4.9c1.4-1.4,3.1-2,5-2s3.6,0.6,5,1.9c1.4,1.3,2,2.8,2,4.7
				c0,1.8-0.6,3.4-1.9,4.8c1.3,0.8,2.3,1.9,3.1,3.2c0.8,1.4,1.2,2.9,1.2,4.6c0,2.6-0.9,4.8-2.8,6.6
				C-187.7,408.7-190,409.6-192.6,409.6z M-201.8,400v0.6c0,2.4,0.9,4.4,2.7,6.1c1.8,1.7,4,2.6,6.5,2.6s4.7-0.9,6.5-2.6
				c1.8-1.8,2.7-3.9,2.7-6.4c0-1.6-0.4-3.1-1.2-4.4c-0.8-1.3-1.9-2.4-3.2-3.2l-0.2-0.1l0.1-0.1c1.3-1.4,1.9-3,1.9-4.7
				s-0.7-3.2-1.9-4.4c-1.3-1.2-2.9-1.8-4.8-1.8c-1.9,0-3.5,0.7-4.8,1.9c-1.3,1.3-2,2.8-2,4.5h0.9c0.1-1.6,0.7-2.9,1.8-4
				c1.2-1.2,2.6-1.7,4.2-1.7s3,0.6,4.1,1.7c1.1,1.1,1.7,2.5,1.7,4c0,0.8-0.2,1.7-0.5,2.5c-0.4,0.8-0.9,1.5-1.5,2l-0.4,0.3l0.4,0.2
				c1.3,0.6,2.4,1.6,3.3,3.1c0.8,1.5,1.2,3,1.2,4.5c0,2.3-0.8,4.2-2.5,5.8c-1.6,1.6-3.6,2.4-5.9,2.4c-2.3,0-4.3-0.8-5.9-2.4
				s-2.4-3.5-2.4-5.8v-0.4h-0.8V400z"/>
		</g>
		<g>
			<path fill="#0084AD" d="M-182.4,381.7h18.1l-14.1,27.3h-1.4l13.6-26.2h-16.2V381.7z"/>
			<path fill="#0084AD" d="M-178.4,409.2h-1.7l0.1-0.2l13.4-26h-16.1v-1.4h18.5L-178.4,409.2z M-179.5,408.9h1l13.9-27h-17.7v0.7
				h16.3L-179.5,408.9z"/>
		</g>
	</g>
	<path fill="none" stroke="#009ABF" stroke-width="1.6241" stroke-miterlimit="10" d="M-272.4,335.3c-5.9,0-10.6,4.7-10.6,10.6
		c0,3.9,2.2,7.4,5.3,9.2l0,0l-7.1,18.4c-0.5,1.2,0.4,2.5,1.7,2.5h10.6"/>
	<g>
		<path fill="#0084AD" d="M-261.8,376.8h-10.6v-1.6h10.6c0.3,0,0.6-0.2,0.8-0.4c0.2-0.3,0.2-0.6,0.1-0.9l-7.3-19.1l0.6-0.3
			c3.1-1.7,4.9-4.9,4.9-8.5c0-5.4-4.4-9.8-9.8-9.8v-1.6c6.3,0,11.4,5.1,11.4,11.4c0,3.9-1.9,7.4-5.2,9.5l6.8,17.8
			c0.3,0.8,0.2,1.7-0.3,2.4C-260.1,376.4-260.9,376.8-261.8,376.8z"/>
	</g>
	<line fill="none" stroke="#009ABF" stroke-width="0.457" stroke-miterlimit="10" x1="-272.4" y1="341.9" x2="-272.4" y2="369.4"/>
</g>
<text transform="matrix(1 0 0 1 -298.1323 467.2658)" fill="#FFFFFF" font-family="'PoiretOne-Regular'" font-size="8">video adv • experience • branded content</text>
</svg>
