<?xml version="1.0" encoding="utf-8"?>
<!-- Generator: Adobe Illustrator 18.1.0, SVG Export Plug-In . SVG Version: 6.00 Build 0)  -->
<!DOCTYPE svg PUBLIC "-//W3C//DTD SVG 1.1//EN" "http://www.w3.org/Graphics/SVG/1.1/DTD/svg11.dtd">
<svg version="1.1" id="Livello_1" xmlns="http://www.w3.org/2000/svg" xmlns:xlink="http://www.w3.org/1999/xlink" x="0px" y="0px"
	 width="1000px" height="1000px" viewBox="0 0 1000 1000" enable-background="new 0 0 1000 1000" xml:space="preserve">
<rect fill="#2D83AA" width="1000" height="1000"/>
<g>
	<g>
		<path fill="#FFFFFF" stroke="#FFFFFF" stroke-width="3.8419" stroke-miterlimit="10" d="M373.9,305.7
			c-17.6-18.1-26.4-39.3-26.4-63.6c0-24.3,8.9-45.3,26.7-63c17.8-17.7,39.2-26.6,64.2-26.6c25,0,46.3,8.8,63.9,26.5
			c17.7,17.7,26.5,38.7,26.5,63.1c0,24.4-8.8,45.7-26.3,63.7c-17.5,18.1-38.4,27.1-62.8,27.1h-3.5
			C412.3,332.9,391.5,323.8,373.9,305.7z M521.2,242.5c0-22.9-8.1-42.5-24.3-58.8c-16.2-16.4-35.7-24.5-58.6-24.5
			c-22.9,0-42.4,8.2-58.7,24.5c-16.3,16.4-24.4,36-24.4,58.8c0,22.9,8.1,42.5,24.4,58.9c16.3,16.4,35.8,24.6,58.6,24.6
			c22.8,0,42.3-8.2,58.6-24.6C513.1,285.1,521.2,265.4,521.2,242.5z"/>
		<path fill="#FFFFFF" stroke="#FFFFFF" stroke-width="3.8419" stroke-miterlimit="10" d="M576.2,305.7
			c-17.6-18.1-26.4-39.3-26.4-63.6c0-24.3,8.9-45.3,26.7-63c17.8-17.7,39.2-26.6,64.2-26.6c25,0,46.3,8.8,63.9,26.5
			c17.7,17.7,26.5,38.7,26.5,63.1c0,24.4-8.8,45.7-26.3,63.7c-17.5,18.1-38.4,27.1-62.8,27.1h-3.5
			C614.6,332.9,593.8,323.8,576.2,305.7z M723.5,242.5c0-22.9-8.1-42.5-24.3-58.8c-16.2-16.4-35.7-24.5-58.6-24.5
			c-22.9,0-42.4,8.2-58.7,24.5c-16.3,16.4-24.4,36-24.4,58.8c0,22.9,8.1,42.5,24.4,58.9c16.3,16.4,35.8,24.6,58.6,24.6
			c22.8,0,42.3-8.2,58.6-24.6C715.3,285.1,723.5,265.4,723.5,242.5z"/>
		<path fill="#FFFFFF" stroke="#FFFFFF" stroke-width="3.8419" stroke-miterlimit="10" d="M937.8,155.5v174.4h-7.7V164.5
			l-82.3,168.6L766,164.5v165.3h-7V155.5h11.2l78.4,160.9l78.6-160.9H937.8z"/>
	</g>
	<g>
		<path fill="#FFFFFF" stroke="#FFFFFF" stroke-width="2" stroke-miterlimit="10" d="M672.1,426.7c0-15.8-5.2-29.5-15.5-41.2
			c-10.3-11.7-24-17.6-41-17.6c-17,0-31.2,6.1-42.5,18.4c-11.3,12.3-17,27.1-17,44.6h-7.3c0-19.8,6.4-36.4,19.2-49.7
			c12.8-13.3,28.8-19.9,47.9-19.9c19.1,0,34.6,6.5,46.3,19.4c11.7,13,17.6,28.4,17.6,46.2c0,25.8-13.8,47.3-41.5,64.7l-63.7,39.8
			h104.5v7.7H550.2l81.8-51.8C658.7,470.5,672.1,450.3,672.1,426.7z"/>
		<path fill="#FFFFFF" stroke="#FFFFFF" stroke-width="2" stroke-miterlimit="10" d="M819.2,482.5c0,16.4-5.9,30.3-17.7,41.8
			c-11.8,11.5-26,17.2-42.5,17.2s-30.7-5.5-42.5-16.6c-11.8-11.1-17.7-24.4-17.7-39.8v-4.9h7.3v3.7c0,14.2,5.1,26.3,15.3,36.2
			c10.2,9.9,22.6,14.9,37.1,14.9c14.5,0,27-5,37.4-14.9c10.4-9.9,15.6-22.1,15.6-36.4c0-9.8-2.6-19.4-7.8-28.6
			c-5.2-9.2-12.1-15.6-20.5-19.2l-4.4-1.9l4.2-3.3c4.1-3.1,7.2-7.2,9.5-12.3c2.3-5.1,3.4-10.3,3.4-15.6c0-9.5-3.6-17.8-10.7-24.8
			s-15.6-10.5-25.5-10.5c-9.9,0-18.6,3.6-26,10.9c-7.4,7.3-11.3,16-11.6,26.1h-7.5c0.3-12,4.8-22.3,13.5-30.8
			c8.7-8.5,19.1-12.8,31.4-12.8c12.3,0,22.6,4,31.2,11.9c8.5,8,12.8,17.7,12.8,29.2c0,11.5-4.1,21.8-12.4,30.8
			c8.6,5.2,15.5,12.1,20.6,21C816.6,462.6,819.2,472.1,819.2,482.5z"/>
		<path fill="#FFFFFF" stroke="#FFFFFF" stroke-width="2" stroke-miterlimit="10" d="M824,363.9h116l-90.4,175.3h-8.7l86.9-168.5
			H824V363.9z"/>
	</g>
	<path fill="none" stroke="#5199BC" stroke-width="10.4174" stroke-miterlimit="10" d="M246.9,66c-37.5,0-68,30.4-68,68
		c0,25.3,13.8,47.4,34.3,59.1l0,0L168,311.3c-2.9,7.6,2.7,15.8,10.9,15.8h68.1"/>
	<path fill="none" stroke="#FFFFFF" stroke-width="10.4174" stroke-miterlimit="10" d="M246.9,327.1H315c8.2,0,13.8-8.2,10.9-15.8
		L280.6,193l0,0c20.7-11.7,34.3-33.6,34.3-59c0-37.5-30.4-68-68-68"/>
	
		<line fill="#5199BC" stroke="#5199BC" stroke-width="2.9314" stroke-miterlimit="10" x1="246.9" y1="108.6" x2="246.9" y2="284.5"/>
</g>
</svg>
